<?xml version="1.0" standalone="no"?>
<!DOCTYPE svg PUBLIC "-//W3C//DTD SVG 20010904//EN"
 "http://www.w3.org/TR/2001/REC-SVG-20010904/DTD/svg10.dtd">
<svg version="1.0" xmlns="http://www.w3.org/2000/svg"
 width="1301.000000pt" height="1301.000000pt" viewBox="0 0 1301.000000 1301.000000"
 preserveAspectRatio="xMidYMid meet">
<metadata>
Created by potrace 1.14, written by Peter Selinger 2001-2017
</metadata>
<g transform="translate(0.000000,1301.000000) scale(0.100000,-0.100000)"
fill="#000000" stroke="none">
<path d="M2555 11930 c-179 -20 -249 -67 -282 -192 -13 -50 -17 -110 -17 -293
-1 -290 8 -345 69 -413 24 -27 63 -56 87 -66 24 -10 50 -21 58 -25 8 -4 44 -8
80 -10 36 -1 69 -7 74 -12 6 -5 20 -9 32 -9 12 0 27 -7 34 -15 7 -8 18 -15 26
-15 7 0 19 -18 25 -40 13 -41 6 -81 -26 -155 -23 -53 -73 -199 -85 -245 -7
-25 -16 -49 -20 -55 -4 -5 -11 -30 -15 -55 -4 -25 -11 -53 -16 -62 -9 -16 -20
-54 -60 -207 -26 -94 -108 -474 -115 -526 -3 -22 -9 -62 -14 -90 -5 -27 -12
-72 -15 -100 -4 -27 -8 -63 -10 -80 -33 -248 -46 -481 -46 -770 0 -292 2 -340
27 -595 17 -178 17 -177 50 -370 41 -242 96 -466 175 -705 27 -82 54 -163 58
-180 9 -30 67 -173 118 -290 84 -195 249 -502 341 -635 29 -41 52 -80 52 -87
0 -7 4 -13 8 -13 5 0 21 -18 38 -40 33 -47 143 -191 177 -233 89 -112 295
-320 430 -434 42 -36 77 -70 77 -75 0 -5 11 -13 25 -18 14 -5 25 -14 25 -20 0
-5 5 -10 11 -10 10 0 34 -18 134 -98 48 -38 298 -195 380 -237 28 -14 57 -30
65 -35 15 -10 152 -74 265 -125 71 -32 174 -75 195 -81 8 -2 76 -24 150 -49
146 -50 438 -123 590 -149 492 -84 1034 -84 1520 0 159 28 371 75 465 104 221
68 331 103 340 110 6 4 22 10 38 14 15 4 60 22 99 41 39 19 77 35 83 35 7 0
50 19 96 43 46 24 118 61 159 82 41 21 93 51 115 65 22 15 50 30 63 34 12 4
22 12 22 17 0 5 7 9 15 9 9 0 27 10 40 23 14 12 46 33 72 47 27 14 52 30 58
37 5 7 44 37 85 68 109 81 196 160 375 340 143 143 373 406 384 438 2 7 21 31
41 54 40 46 55 67 161 233 40 63 76 117 79 120 11 10 189 363 233 460 43 97
104 261 151 405 25 77 51 155 57 174 6 18 13 47 16 65 3 17 8 33 13 36 4 3 10
21 12 40 3 19 17 89 31 155 56 264 87 482 107 755 10 134 15 744 6 758 -2 4
-7 67 -11 141 -4 74 -8 144 -10 155 -2 12 -9 66 -15 121 -25 217 -50 379 -85
555 -27 141 -97 435 -120 505 -7 22 -22 74 -34 115 -29 98 -70 230 -81 255 -4
11 -18 45 -31 75 -12 30 -23 77 -23 104 -1 43 3 51 32 76 21 18 54 31 90 38
78 14 174 32 192 37 60 13 122 76 155 155 36 88 31 670 -6 670 -5 0 -9 5 -9
11 0 20 -61 86 -98 106 -78 43 -106 44 -756 42 -342 -1 -648 -6 -680 -11 -109
-17 -168 -61 -217 -157 -23 -44 -24 -58 -27 -268 -4 -217 7 -374 27 -410 9
-16 59 -169 74 -228 3 -11 15 -51 27 -90 35 -117 82 -298 85 -330 2 -16 8 -43
15 -60 7 -16 15 -52 20 -80 4 -27 15 -86 24 -130 49 -240 79 -445 118 -805 17
-152 16 -823 -1 -940 -7 -47 -15 -107 -17 -135 -20 -216 -90 -525 -170 -750
-25 -71 -48 -138 -51 -147 -9 -29 -20 -21 -28 19 -13 69 -47 118 -152 218
-102 97 -511 493 -583 566 -20 19 -41 53 -48 76 -7 25 -49 84 -110 158 l-99
118 -36 136 c-50 187 -70 305 -63 360 11 78 17 101 27 101 13 0 133 92 187
144 91 86 157 207 189 349 21 94 24 364 4 462 -57 288 -235 588 -510 859 -44
44 -77 84 -74 89 3 6 1 7 -6 3 -7 -4 -31 9 -59 32 -60 51 -237 166 -316 207
-34 17 -92 51 -131 75 -100 62 -323 162 -478 214 -150 51 -319 96 -357 96 -75
-1 -160 -77 -225 -203 -68 -130 -124 -223 -147 -243 -34 -31 -271 -114 -478
-168 -134 -36 -240 -53 -440 -70 -208 -19 -262 -29 -315 -59 -34 -19 -40 -28
-43 -59 -4 -43 9 -57 100 -111 266 -161 533 -287 786 -372 78 -27 82 -29 82
-58 0 -16 12 -86 26 -156 23 -112 25 -139 19 -248 -3 -67 -13 -143 -21 -169
-27 -91 -13 -174 37 -221 37 -34 90 -52 192 -65 l95 -12 -58 -66 c-31 -37
-104 -129 -161 -206 -57 -76 -136 -170 -175 -209 -39 -38 -98 -110 -132 -160
-33 -49 -84 -117 -111 -150 -28 -33 -74 -91 -102 -128 -28 -37 -53 -67 -54
-65 -2 2 8 156 22 342 22 301 23 341 9 354 -17 17 -165 48 -276 57 -123 10
-126 12 -148 59 -34 72 -37 73 -164 30 -62 -20 -159 -57 -215 -80 -57 -24
-105 -44 -107 -44 -13 0 -125 -73 -130 -85 -3 -8 29 -88 69 -180 101 -225 175
-401 175 -414 0 -6 -17 -46 -39 -89 -40 -81 -66 -152 -77 -214 -5 -33 3 -56
69 -190 128 -260 147 -372 147 -889 0 -353 -1 -367 -20 -384 -16 -14 -20 -31
-20 -79 0 -63 -16 -266 -25 -323 l-6 -31 -22 21 c-31 30 -117 133 -117 140 0
3 -14 21 -31 39 -29 31 -148 206 -163 238 -3 8 -15 29 -26 45 -11 17 -32 54
-46 82 -14 29 -30 55 -35 58 -5 4 -9 12 -9 19 0 6 -21 52 -48 101 -46 89 -78
161 -122 280 -13 33 -26 69 -31 80 -46 114 -114 377 -147 570 -55 314 -67 472
-67 885 1 347 9 494 46 800 32 269 108 727 129 775 5 11 11 38 14 60 3 22 7
47 9 55 2 8 7 33 12 55 16 83 98 393 121 460 23 68 32 215 30 455 -3 220 -7
240 -60 304 -14 17 -22 34 -19 39 3 6 1 7 -4 4 -6 -4 -37 5 -69 21 l-59 27
-610 1 c-335 1 -641 -2 -680 -6z m2652 -3536 c-3 -3 -12 -4 -19 -1 -8 3 -5 6
6 6 11 1 17 -2 13 -5z m40 -10 c-3 -3 -12 -4 -19 -1 -8 3 -5 6 6 6 11 1 17 -2
13 -5z m-27 -33 c0 -6 -4 -12 -9 -15 -5 -3 -22 -41 -37 -83 -21 -56 -30 -71
-32 -55 -5 30 49 162 66 162 6 0 12 -4 12 -9z m3509 -1602 c-18 -28 -38 -53
-45 -56 -8 -3 -12 -9 -9 -13 3 -4 -2 -13 -10 -20 -8 -7 -15 -17 -15 -22 0 -5
-28 -44 -62 -86 -65 -81 -67 -84 -124 -147 l-36 -40 28 50 c54 98 116 184 205
284 49 55 92 101 94 101 3 0 -9 -23 -26 -51z m-557 -353 c43 -20 108 -44 145
-53 38 -10 69 -18 71 -19 6 -3 -170 -169 -189 -178 -10 -5 -19 -12 -19 -16 0
-8 -82 -72 -162 -127 -132 -91 -151 -103 -158 -103 -4 0 -11 16 -14 35 -6 28
4 65 48 183 30 81 64 195 77 254 l22 106 51 -23 c28 -12 86 -39 128 -59z"/>
<path d="M1895 6525 c-126 -52 -234 -96 -240 -98 -11 -4 22 -112 39 -126 7 -6
43 4 96 26 146 60 135 56 119 36 -7 -10 -28 -35 -46 -56 -33 -37 -33 -37 -17
-75 9 -20 18 -42 21 -48 5 -14 51 -24 109 -24 24 0 44 -4 44 -8 0 -5 -47 -26
-105 -47 -58 -21 -109 -43 -114 -49 -10 -12 30 -118 47 -124 8 -2 382 146 464
185 l36 18 -22 55 c-26 64 -24 63 -218 75 l-118 7 101 111 c88 97 100 114 95
138 -9 48 -34 99 -48 98 -7 0 -116 -43 -243 -94z"/>
<path d="M10887 6587 c-8 -17 -20 -49 -27 -70 -16 -41 -22 -30 100 -159 l44
-48 -96 0 c-53 0 -107 -4 -120 -9 -16 -6 -31 -28 -47 -70 -13 -34 -22 -63 -20
-66 3 -2 90 3 195 12 l191 17 81 -33 c45 -18 88 -31 95 -28 8 3 23 29 34 59
25 64 24 65 -76 104 -72 27 -76 31 -190 162 -64 74 -121 140 -127 148 -16 21
-22 18 -37 -19z"/>
<path d="M10560 5875 c-17 -30 -29 -59 -26 -64 4 -5 58 -40 121 -78 l116 -68
-118 -6 c-65 -4 -143 -7 -173 -8 l-56 -1 -29 -56 c-30 -55 -30 -55 -10 -70 58
-43 436 -264 444 -260 13 8 61 96 61 111 0 8 -53 44 -117 82 l-117 68 95 6
c52 4 129 7 171 8 l77 1 32 56 c31 55 32 57 13 71 -41 30 -433 263 -442 263
-6 0 -25 -25 -42 -55z"/>
<path d="M2350 5778 c-52 -61 -133 -156 -179 -210 l-84 -99 28 -52 c47 -88 21
-86 320 -20 147 32 269 63 272 70 2 6 -11 36 -30 65 l-34 54 -174 -43 c-95
-23 -175 -41 -177 -38 -2 2 53 63 123 134 l126 130 -27 48 c-36 63 -44 73 -58
72 -6 0 -54 -50 -106 -111z"/>
<path d="M10041 5119 c-40 -46 -43 -53 -32 -77 11 -23 268 -459 278 -472 6 -6
92 92 93 105 0 6 -12 27 -26 48 l-25 38 24 32 c14 18 40 49 59 71 l34 39 31
-17 c18 -9 41 -16 51 -16 21 0 107 96 93 104 -11 7 -522 196 -530 196 -3 0
-26 -23 -50 -51z m207 -133 c39 -16 72 -34 72 -40 -1 -12 -60 -80 -64 -74 -19
24 -95 149 -89 146 5 -1 41 -16 81 -32z"/>
<path d="M3047 4856 c-45 -16 -63 -31 -134 -105 -68 -70 -93 -122 -93 -192 0
-160 186 -294 321 -231 24 12 52 28 63 36 17 14 16 17 -28 61 -44 45 -46 46
-68 31 -35 -25 -73 -20 -113 15 -64 57 -46 117 67 217 37 31 57 42 82 42 40 0
79 -28 96 -70 11 -27 11 -37 -4 -67 l-17 -36 43 -44 c23 -23 46 -43 50 -43 4
0 19 21 34 46 83 142 -35 339 -211 351 -27 2 -67 -3 -88 -11z"/>
<path d="M9664 4691 c-23 -10 -72 -48 -110 -83 -38 -35 -84 -78 -103 -95 l-33
-30 182 -197 c101 -108 188 -196 194 -196 13 0 96 81 96 94 0 6 -23 34 -51 62
l-51 51 51 48 c87 83 111 165 72 250 -45 98 -151 139 -247 96z m101 -146 c36
-35 32 -67 -15 -115 -22 -23 -44 -40 -48 -38 -4 2 -27 24 -50 49 l-42 46 45
42 c51 47 76 51 110 16z"/>
<path d="M3546 4202 c-121 -87 -221 -163 -223 -169 -3 -7 21 -29 51 -49 l56
-37 34 27 c19 14 40 26 45 26 6 0 42 -21 80 -46 l69 -45 -14 -46 c-8 -25 -11
-49 -8 -54 9 -15 92 -69 106 -69 10 0 21 27 33 78 10 42 41 164 70 270 58 216
59 200 -16 248 -21 13 -44 24 -51 24 -7 -1 -112 -72 -232 -158z m178 -95 c-28
-83 -27 -83 -84 -38 -16 13 -21 23 -15 29 30 28 118 92 121 89 2 -2 -8 -38
-22 -80z"/>
<path d="M9127 4272 l-49 -27 6 -77 c3 -43 9 -115 13 -160 l6 -81 -128 87
-128 87 -44 -23 c-87 -46 -108 6 197 -498 8 -13 16 -11 57 12 26 15 52 33 57
41 7 11 -6 41 -47 109 -31 51 -57 97 -57 101 0 4 25 -8 55 -28 31 -19 59 -35
64 -35 5 0 28 11 52 24 l42 24 -2 74 c-2 83 -5 85 70 -44 29 -49 54 -88 57
-88 8 0 111 61 115 68 6 9 -265 455 -278 458 -5 2 -32 -9 -58 -24z"/>
<path d="M4271 3988 c-76 -41 -112 -139 -76 -207 8 -16 50 -59 95 -95 45 -37
80 -74 80 -84 0 -43 -59 -56 -111 -25 -32 19 -45 49 -34 82 5 18 -2 25 -47 46
-29 14 -58 25 -65 25 -33 0 -45 -107 -18 -159 26 -51 94 -100 169 -123 61 -18
76 -20 114 -9 87 23 135 83 135 167 0 52 -22 84 -112 159 -75 62 -89 94 -51
115 14 8 29 7 54 -4 41 -17 50 -31 48 -71 -2 -27 3 -33 43 -53 62 -30 72 -28
86 16 31 104 -78 222 -220 238 -36 5 -55 1 -90 -18z"/>
<path d="M8234 3834 c-56 -20 -123 -79 -145 -128 -26 -57 -24 -117 7 -209 31
-94 74 -152 134 -185 39 -21 55 -23 121 -20 93 5 166 42 213 107 29 40 31 49
31 124 0 66 -5 94 -27 145 -58 138 -104 176 -217 179 -48 2 -91 -3 -117 -13z
m131 -116 c33 -15 87 -125 93 -191 4 -40 1 -52 -18 -72 -13 -14 -39 -30 -58
-36 -54 -18 -93 8 -127 83 -49 108 -46 175 8 208 37 23 65 25 102 8z"/>
<path d="M4846 3515 l-85 -256 27 -10 c51 -19 111 -33 118 -26 3 3 15 34 24
69 10 35 44 143 74 240 31 98 56 183 56 191 0 11 -96 47 -124 47 -2 0 -43
-115 -90 -255z"/>
<path d="M5316 3381 c-29 -153 -45 -266 -40 -270 15 -14 124 -29 131 -18 5 8
24 99 48 232 7 39 7 39 69 -113 34 -84 67 -156 72 -161 13 -12 118 -31 125
-23 3 4 28 123 54 266 39 213 45 260 34 267 -15 9 -118 24 -124 18 -2 -3 -13
-61 -25 -129 -12 -69 -25 -128 -29 -133 -4 -4 -34 60 -67 144 -32 83 -66 155
-75 160 -9 5 -41 11 -71 15 l-54 6 -48 -261z"/>
<path d="M7498 3630 c-90 -27 -149 -88 -169 -176 -10 -44 -9 -65 10 -149 24
-112 51 -162 113 -202 36 -24 51 -28 117 -28 81 0 126 13 180 53 55 40 99 159
73 199 -5 8 -22 8 -67 -1 -47 -9 -61 -16 -63 -31 -2 -11 -8 -32 -13 -46 -25
-65 -142 -72 -173 -11 -26 51 -47 176 -35 211 22 62 120 83 164 35 14 -15 25
-31 25 -37 0 -11 94 -1 122 14 17 9 17 12 2 47 -34 83 -111 132 -204 131 -30
0 -67 -4 -82 -9z"/>
<path d="M6255 3519 c-43 -12 -102 -64 -128 -112 -19 -37 -22 -57 -22 -162 0
-112 2 -123 27 -166 53 -90 161 -133 275 -110 74 15 125 49 160 108 25 43 28
59 32 161 3 105 1 116 -23 166 -28 57 -78 99 -137 116 -41 12 -143 12 -184 -1z
m131 -119 c8 0 26 -11 39 -25 23 -22 25 -32 25 -115 0 -130 -25 -170 -104
-170 -25 0 -45 9 -68 29 -33 29 -33 30 -33 123 0 73 4 100 18 121 17 26 70 49
95 41 8 -2 20 -4 28 -4z"/>
<path d="M2082 2631 c-20 -12 -24 -98 -6 -116 14 -13 506 -15 4414 -15 l4399
0 20 21 c23 24 19 71 -7 102 -14 16 -237 17 -4411 17 -2418 0 -4402 -4 -4409
-9z"/>
<path d="M4800 2200 c-11 -11 -20 -27 -20 -35 0 -21 36 -55 59 -55 27 0 51 26
51 55 0 51 -54 71 -90 35z"/>
<path d="M8418 2209 c-44 -25 -4 -109 44 -94 28 9 38 23 38 52 0 43 -43 65
-82 42z"/>
<path d="M8607 2213 c-4 -3 -7 -105 -7 -225 l0 -218 45 0 45 0 0 225 0 225
-38 0 c-21 0 -42 -3 -45 -7z"/>
<path d="M6661 2195 c-97 -27 -161 -95 -181 -191 -25 -119 20 -225 115 -274
41 -20 64 -25 128 -25 67 0 81 3 93 20 28 38 15 46 -83 48 -102 2 -131 16
-167 77 -27 46 -26 142 3 197 69 136 284 132 330 -6 27 -81 -26 -188 -68 -137
-10 12 -9 32 2 90 7 42 11 78 9 81 -9 9 -61 5 -66 -4 -4 -5 -20 -5 -40 1 -75
23 -136 -35 -136 -128 0 -42 5 -56 26 -78 30 -29 87 -36 119 -12 16 11 23 11
52 -7 106 -62 210 64 169 206 -34 117 -169 180 -305 142z m88 -193 c11 -20 5
-59 -12 -79 -13 -18 -54 -16 -60 1 -6 14 5 65 18 86 10 16 44 11 54 -8z"/>
<path d="M2937 2094 c-4 -4 -37 -7 -72 -6 l-65 3 0 -161 0 -160 45 0 45 0 0
105 c0 92 3 108 20 125 52 52 80 9 80 -127 l0 -103 44 0 c31 0 46 5 50 16 3 9
6 60 6 114 0 88 2 100 19 110 27 14 37 13 55 -6 13 -12 16 -39 16 -125 l0
-109 45 0 45 0 0 120 c0 135 -10 169 -60 195 -39 20 -78 19 -122 -4 -32 -16
-38 -16 -51 -4 -16 17 -88 29 -100 17z"/>
<path d="M3765 2081 c-47 -21 -69 -50 -79 -104 -19 -100 30 -193 110 -206 83
-15 165 27 179 91 8 35 3 41 -35 44 -23 2 -35 -5 -51 -27 -24 -34 -67 -39 -94
-12 -21 21 -17 129 6 144 28 17 68 10 85 -16 13 -20 25 -25 55 -25 44 0 49 12
24 59 -17 33 -87 71 -131 71 -16 0 -47 -9 -69 -19z"/>
<path d="M4150 2087 c-20 -7 -44 -27 -58 -47 l-24 -35 43 -3 c24 -2 53 2 64 8
36 19 70 9 73 -22 3 -26 2 -27 -28 -18 -81 23 -170 -30 -170 -101 0 -30 30
-76 57 -88 30 -14 108 -14 134 -1 13 8 19 7 19 0 0 -7 17 -10 43 -8 l42 3 2
122 c1 110 -1 125 -19 149 -39 49 -108 65 -178 41z m81 -187 c28 -15 24 -48
-6 -56 -38 -9 -75 3 -75 26 0 33 44 49 81 30z"/>
<path d="M4505 2088 c-47 -25 -65 -51 -65 -90 0 -54 30 -81 108 -98 68 -14 80
-23 62 -45 -24 -29 -100 -9 -100 26 0 6 -17 9 -37 7 -35 -3 -38 -5 -36 -32 8
-113 235 -119 267 -8 19 66 -20 112 -106 126 -59 10 -82 24 -67 42 18 22 57
17 75 -11 12 -19 25 -25 50 -25 31 0 34 3 34 29 0 67 -117 117 -185 79z"/>
<path d="M5098 2085 c-16 -9 -28 -11 -28 -5 0 5 -18 10 -40 10 l-40 0 0 -160
0 -160 45 0 45 0 0 109 c0 116 9 141 50 141 37 0 50 -37 50 -147 l0 -103 45 0
45 0 0 130 c0 128 0 130 -28 161 -34 38 -100 49 -144 24z"/>
<path d="M5432 2080 c-92 -42 -111 -199 -33 -274 55 -53 164 -51 217 5 26 27
29 38 32 109 5 97 -15 139 -78 164 -53 21 -85 20 -138 -4z m122 -82 c9 -12 16
-41 16 -63 0 -56 -22 -85 -65 -85 -42 0 -55 20 -55 85 0 65 13 85 55 85 24 0
39 -7 49 -22z"/>
<path d="M5802 2079 c-55 -27 -73 -64 -73 -142 0 -118 35 -160 139 -165 81 -4
119 16 147 74 17 36 17 38 0 51 -26 18 -67 8 -88 -22 -24 -32 -70 -34 -91 -3
-9 12 -16 41 -16 63 0 53 23 85 60 85 20 0 35 -8 46 -25 13 -20 24 -25 61 -25
41 0 44 2 38 23 -19 63 -60 95 -131 103 -38 4 -59 0 -92 -17z"/>
<path d="M6185 2087 c-17 -8 -43 -29 -58 -46 -24 -29 -27 -41 -27 -104 0 -83
20 -126 71 -152 44 -23 122 -21 163 5 85 52 88 222 6 282 -34 25 -116 32 -155
15z m103 -79 c7 -7 12 -39 12 -73 0 -69 -10 -85 -55 -85 -45 0 -55 16 -55 85
0 34 5 66 12 73 16 16 70 16 86 0z"/>
<path d="M7124 2086 c-55 -25 -74 -60 -74 -138 0 -81 17 -121 61 -144 32 -16
95 -16 132 1 31 13 17 -37 -16 -55 -25 -14 -30 -13 -58 3 -28 15 -119 25 -119
12 0 -4 7 -19 15 -35 41 -79 190 -90 257 -18 l28 30 0 175 0 174 -57 -1 c-32
-1 -76 1 -98 4 -25 4 -52 1 -71 -8z m120 -82 c21 -21 21 -92 -1 -116 -20 -22
-66 -23 -84 -1 -8 9 -14 35 -14 58 0 23 6 49 14 58 17 21 65 22 85 1z"/>
<path d="M7568 2086 c-16 -8 -28 -11 -28 -5 0 5 -20 9 -45 9 l-46 0 3 -157 3
-158 45 0 45 0 5 113 c4 85 9 115 20 122 20 13 33 12 53 -2 13 -11 17 -34 19
-123 l3 -110 45 0 45 0 5 113 c4 85 9 115 20 122 20 13 33 12 53 -2 13 -11 17
-34 19 -123 l3 -110 45 0 45 0 0 125 c0 140 -10 169 -67 189 -43 15 -68 14
-109 -7 -34 -17 -36 -17 -65 0 -35 22 -79 23 -116 4z"/>
<path d="M8104 2086 c-30 -13 -74 -60 -74 -77 0 -12 87 -11 95 1 9 14 58 13
73 -2 7 -7 12 -20 12 -30 0 -15 -5 -17 -27 -11 -75 20 -143 -5 -162 -59 -15
-42 -14 -64 4 -92 24 -37 61 -46 175 -43 l105 2 3 107 c3 119 -9 165 -51 193
-35 22 -115 29 -153 11z m92 -190 c15 -12 17 -18 8 -33 -14 -23 -76 -29 -93
-10 -32 39 40 75 85 43z"/>
<path d="M9033 2081 c-64 -29 -91 -102 -74 -195 16 -87 93 -133 188 -114 48
10 103 64 103 102 0 44 -62 44 -93 1 -22 -29 -67 -34 -91 -9 -21 20 -21 102 0
132 22 31 69 30 90 -3 13 -20 25 -25 55 -25 44 0 49 12 23 61 -17 34 -82 69
-129 69 -16 0 -49 -9 -72 -19z"/>
<path d="M9413 2089 c-66 -19 -101 -93 -90 -189 11 -95 64 -136 166 -128 52 4
67 9 92 35 34 34 48 80 44 147 -5 66 -24 98 -75 124 -46 23 -84 26 -137 11z
m105 -81 c7 -7 12 -39 12 -73 0 -69 -10 -85 -55 -85 -45 0 -55 16 -55 85 0 34
5 66 12 73 16 16 70 16 86 0z"/>
<path d="M9846 2093 c-4 -4 -36 -6 -72 -5 l-65 3 3 -158 3 -158 43 -3 42 -3 0
105 c0 93 3 109 20 126 25 25 42 25 63 2 14 -15 17 -40 17 -126 l0 -107 48 3
47 3 3 110 c2 89 6 112 19 123 22 16 38 15 57 -4 13 -12 16 -39 16 -125 l0
-110 48 3 47 3 3 110 c2 64 -2 120 -8 136 -28 67 -106 96 -172 65 -31 -15 -38
-15 -71 -1 -39 16 -79 20 -91 8z"/>
<path d="M3340 2077 c0 -7 22 -78 48 -157 l49 -145 49 0 49 0 52 150 c28 83
52 153 52 158 1 4 -21 7 -48 7 l-48 0 -29 -96 -28 -97 -30 97 -29 96 -44 0
c-28 0 -43 -4 -43 -13z"/>
<path d="M4790 1929 l0 -160 48 3 47 3 3 158 3 157 -51 0 -50 0 0 -161z"/>
<path d="M8402 1933 l3 -158 43 -3 c29 -2 42 1 43 10 0 7 0 78 0 158 l0 145
-46 3 -46 3 3 -158z"/>
<path d="M8800 1860 c-50 -50 7 -114 71 -80 27 15 25 64 -3 84 -30 21 -44 20
-68 -4z"/>
<path d="M3940 1410 c-6 -4 -15 -40 -20 -81 -6 -41 -13 -95 -16 -121 l-7 -48
39 0 c21 0 48 7 58 15 27 21 79 19 99 -3 24 -26 21 -59 -8 -87 -31 -32 -59
-32 -91 0 -18 18 -36 25 -66 25 -39 0 -40 -1 -33 -27 21 -88 142 -130 229 -80
60 34 81 69 80 133 0 93 -65 150 -158 140 -46 -5 -48 -4 -42 17 3 12 6 25 6
29 0 4 35 8 78 10 l77 3 3 38 c2 20 0 38 -5 38 -31 5 -215 4 -223 -1z"/>
<path d="M4432 1400 c-59 -36 -72 -71 -72 -198 0 -125 10 -156 59 -192 72 -50
198 -29 241 42 17 28 20 50 20 148 0 130 -12 163 -72 200 -45 27 -131 27 -176
0z m130 -77 c15 -14 18 -32 18 -124 0 -105 -1 -109 -25 -125 -28 -18 -64 -13
-89 12 -12 12 -16 38 -16 115 0 86 3 102 20 119 24 24 67 26 92 3z"/>
<path d="M4909 1397 c-21 -14 -39 -38 -48 -63 -13 -38 -13 -45 6 -83 l21 -42
-24 -24 c-19 -19 -24 -35 -24 -74 0 -44 4 -55 34 -84 67 -67 199 -62 256 11
30 37 27 112 -5 150 -21 26 -22 30 -9 44 21 21 28 88 12 118 -37 69 -150 93
-219 47z m122 -66 c20 -16 22 -23 14 -47 -9 -25 -16 -29 -50 -29 -43 0 -52 14
-41 60 5 20 16 28 47 34 4 0 17 -8 30 -18z m17 -184 c19 -15 15 -65 -7 -77
-57 -30 -123 6 -105 57 13 39 74 50 112 20z"/>
<path d="M5703 1407 c-5 -8 -42 -215 -43 -239 0 -15 87 -8 100 7 14 17 62 20
91 5 28 -16 27 -84 -3 -104 -12 -9 -32 -16 -43 -16 -24 1 -55 22 -55 39 0 6
-18 11 -45 11 -41 0 -45 -2 -45 -24 0 -31 32 -70 74 -90 105 -50 236 25 236
135 0 93 -50 143 -142 144 -56 0 -58 1 -58 28 l0 27 81 0 80 0 -3 43 -3 42
-108 1 c-61 0 -111 -4 -114 -9z"/>
<path d="M6246 1386 c-58 -78 -117 -171 -122 -193 -4 -13 -4 -49 -2 -79 4 -42
11 -61 33 -84 78 -82 229 -55 272 48 35 84 -19 184 -106 198 -22 4 -41 9 -41
12 0 3 18 30 41 59 22 30 38 58 34 61 -4 4 -25 7 -47 8 -33 0 -43 -5 -62 -30z
m74 -206 c41 -41 12 -120 -45 -120 -69 0 -90 110 -25 133 29 11 50 7 70 -13z"/>
<path d="M6660 1402 c-57 -30 -80 -87 -80 -202 1 -125 19 -168 85 -200 58 -28
128 -24 179 11 50 34 59 60 63 179 4 95 2 109 -19 150 -15 29 -35 51 -58 62
-47 23 -126 23 -170 0z m132 -79 c15 -14 18 -32 18 -124 0 -100 -2 -109 -22
-123 -31 -22 -64 -20 -88 4 -17 17 -20 33 -20 120 0 87 3 103 20 120 24 24 67
26 92 3z"/>
<path d="M7452 1405 c-9 -13 -41 -228 -35 -237 8 -14 80 -8 93 7 14 17 62 20
91 5 28 -16 27 -84 -3 -104 -31 -22 -52 -20 -86 9 -20 17 -42 25 -66 25 -32 0
-36 -3 -36 -25 0 -14 14 -38 34 -58 72 -72 203 -58 255 26 25 42 28 117 5 155
-29 49 -64 67 -127 67 -56 0 -58 1 -55 25 3 24 7 25 73 28 38 2 74 7 80 12 15
13 17 58 2 67 -18 12 -218 10 -225 -2z"/>
<path d="M7966 1343 c-79 -114 -96 -149 -96 -208 0 -98 68 -160 168 -152 134
10 199 162 108 253 -22 22 -47 36 -75 40 -22 4 -41 8 -41 11 0 2 18 29 41 59
22 31 38 59 34 62 -4 4 -25 7 -47 8 -39 0 -42 -2 -92 -73z m87 -154 c29 -16
37 -28 37 -61 0 -35 -32 -68 -65 -68 -61 0 -87 81 -39 119 31 24 37 25 67 10z"/>
<path d="M8394 1288 c-53 -108 -64 -140 -62 -173 l3 -40 93 -3 92 -3 0 -39 c0
-40 0 -40 40 -40 l40 0 0 40 c0 36 3 40 25 40 18 0 26 7 31 24 10 41 1 61 -29
64 -24 3 -27 7 -27 43 0 39 0 39 -40 39 l-40 0 0 -40 0 -40 -45 0 c-51 0 -51
-7 3 110 47 101 62 140 54 141 -4 1 -22 3 -40 5 l-33 4 -65 -132z"/>
<path d="M8851 1403 c-66 -33 -95 -115 -66 -189 20 -54 63 -84 117 -84 l37 0
-44 -64 c-25 -35 -45 -67 -45 -70 0 -3 22 -6 49 -6 56 0 60 4 142 134 36 59
44 80 47 131 5 77 -14 117 -68 145 -48 24 -122 26 -169 3z m131 -80 c22 -20
23 -70 1 -95 -36 -40 -113 -12 -113 41 0 62 67 95 112 54z"/>
<path d="M5310 1185 l0 -45 95 0 95 0 0 45 0 45 -95 0 -95 0 0 -45z"/>
<path d="M7067 1223 c-4 -3 -7 -24 -7 -45 l0 -38 95 0 95 0 0 45 0 45 -88 0
c-49 0 -92 -3 -95 -7z"/>
</g>
</svg>
