<?xml version="1.0" standalone="no"?>
<!DOCTYPE svg PUBLIC "-//W3C//DTD SVG 20010904//EN"
 "http://www.w3.org/TR/2001/REC-SVG-20010904/DTD/svg10.dtd">
<svg version="1.0" xmlns="http://www.w3.org/2000/svg"
 width="2215.000000pt" height="2215.000000pt" viewBox="0 0 2215.000000 2215.000000"
 preserveAspectRatio="xMidYMid meet">
<metadata>
Created by potrace 1.14, written by Peter Selinger 2001-2017
</metadata>
<g transform="translate(0.000000,2215.000000) scale(0.100000,-0.100000)"
fill="#000000" stroke="none">
<path d="M3427 22144 c-1 -1 -78 -4 -172 -8 -523 -18 -688 -114 -750 -432 -22
-114 -29 -250 -29 -589 0 -391 7 -485 46 -603 68 -213 238 -340 488 -366 25
-3 72 -8 105 -11 224 -23 355 -108 376 -243 5 -37 2 -61 -16 -112 -76 -212
-127 -348 -140 -372 -8 -14 -15 -32 -15 -40 0 -7 -30 -103 -66 -212 -59 -182
-170 -544 -179 -590 -3 -10 -15 -58 -29 -105 -21 -74 -113 -439 -121 -481 -2
-8 -19 -89 -38 -180 -20 -91 -39 -181 -42 -200 -3 -19 -10 -53 -15 -75 -9 -38
-12 -58 -25 -135 -3 -19 -12 -71 -20 -115 -8 -44 -17 -96 -20 -115 -3 -19 -10
-60 -15 -90 -5 -30 -11 -75 -14 -100 -4 -25 -8 -56 -11 -70 -3 -14 -8 -52 -11
-85 -4 -33 -8 -63 -10 -66 -1 -3 -6 -37 -9 -75 -3 -38 -8 -80 -10 -94 -3 -14
-7 -52 -10 -85 -3 -33 -8 -71 -10 -85 -2 -14 -7 -61 -11 -105 -4 -44 -8 -93
-9 -110 -2 -16 -6 -77 -10 -135 -4 -58 -8 -121 -10 -140 -27 -269 -27 -1207 0
-1545 2 -27 7 -86 10 -130 9 -128 14 -184 20 -239 26 -233 41 -352 71 -556 34
-233 37 -252 48 -300 3 -14 8 -41 10 -60 11 -74 97 -473 141 -650 120 -483
292 -1007 475 -1445 23 -55 53 -124 66 -153 13 -29 35 -80 50 -113 102 -244
358 -727 549 -1034 417 -675 917 -1265 1529 -1806 522 -461 1220 -905 1901
-1211 353 -159 641 -263 1137 -413 211 -63 677 -164 993 -215 135 -22 484 -65
609 -75 43 -4 97 -8 120 -10 319 -26 1155 -26 1336 0 14 2 70 6 125 10 55 3
111 8 125 10 14 2 52 6 85 10 639 68 1293 211 1905 414 266 89 529 192 820
323 208 93 760 389 811 434 8 8 18 14 22 14 7 0 296 188 307 200 3 3 37 28 75
55 381 265 885 733 1291 1195 198 226 379 451 542 676 85 117 284 411 295 435
4 8 27 46 51 84 43 67 187 314 256 440 38 69 218 428 248 495 168 375 274 649
396 1028 62 191 173 599 202 742 3 14 14 62 24 107 24 101 20 82 69 348 22
121 43 243 47 270 3 28 8 59 10 70 2 11 6 40 9 65 3 25 8 56 10 70 3 14 7 48
10 75 3 28 8 61 10 75 3 14 7 52 10 85 3 33 8 74 10 90 2 17 6 59 10 95 3 36
8 85 10 110 4 42 13 154 20 245 27 349 27 1231 0 1615 -2 25 -6 92 -10 150 -4
58 -8 119 -10 135 -2 17 -7 66 -10 110 -3 44 -8 91 -10 105 -2 14 -6 57 -10
95 -6 70 -13 138 -20 185 -2 14 -7 52 -10 85 -4 33 -9 72 -11 86 -2 15 -6 47
-9 70 -3 24 -7 55 -10 69 -2 14 -7 50 -10 80 -3 30 -8 62 -10 70 -2 8 -7 35
-10 60 -11 81 -33 210 -86 495 -16 87 -81 400 -105 510 -3 11 -7 31 -10 45 -3
14 -12 52 -21 85 -8 33 -16 67 -18 75 -4 20 -56 219 -95 361 -82 300 -207 683
-322 986 -55 146 -57 173 -15 262 45 96 186 157 407 176 41 3 82 8 90 10 8 2
32 6 52 9 56 8 163 51 212 85 136 94 207 247 223 481 9 132 9 689 0 835 -16
270 -126 446 -329 526 -140 55 -129 55 -1898 49 -245 -1 -539 -1 -655 -1 -115
1 -226 -2 -245 -5 -302 -49 -457 -193 -507 -473 -25 -140 -23 -671 3 -1011 4
-55 26 -135 80 -300 72 -221 139 -436 154 -495 4 -16 19 -70 33 -120 106 -373
200 -765 283 -1185 63 -317 124 -687 154 -930 6 -52 13 -106 16 -120 2 -14 6
-50 9 -80 3 -30 8 -71 10 -90 9 -67 14 -115 20 -175 3 -33 8 -82 10 -110 9
-96 14 -161 20 -255 4 -52 8 -117 10 -145 23 -309 23 -1105 1 -1335 -2 -19 -7
-80 -11 -135 -3 -55 -8 -113 -10 -130 -2 -16 -7 -61 -10 -100 -3 -38 -8 -83
-10 -100 -3 -16 -11 -86 -20 -155 -46 -372 -141 -832 -236 -1155 -48 -160
-151 -469 -160 -479 -4 -5 -34 16 -66 46 -80 75 -200 174 -388 318 -204 157
-343 277 -392 337 -21 26 -49 61 -63 77 -41 48 -308 313 -425 421 -132 123
-113 105 -215 195 -46 41 -92 82 -100 90 -30 28 -57 75 -84 147 -34 89 -109
197 -286 407 l-134 161 -34 115 c-73 250 -151 587 -168 725 -10 85 -9 123 10
270 14 112 22 183 25 232 1 6 88 79 193 161 208 160 274 224 338 323 152 235
246 608 254 1007 14 713 -354 1508 -992 2143 -298 296 -585 503 -930 670 -78
38 -146 69 -150 69 -5 0 -33 17 -63 38 -403 280 -1005 507 -1624 611 -207 35
-400 45 -441 23 -20 -11 -138 -200 -274 -442 -46 -80 -90 -158 -99 -175 -10
-16 -57 -100 -104 -185 -84 -151 -89 -157 -140 -182 -80 -41 -286 -138 -291
-138 -3 0 -33 -13 -68 -29 -116 -53 -233 -100 -428 -174 -186 -70 -478 -145
-670 -172 -24 -4 -47 -8 -50 -10 -3 -2 -36 -6 -75 -9 -38 -4 -83 -9 -100 -11
-16 -2 -61 -7 -100 -10 -89 -8 -151 -14 -195 -20 -19 -2 -55 -7 -80 -10 -25
-3 -61 -8 -80 -11 -19 -2 -49 -6 -65 -8 -17 -2 -50 -9 -75 -16 -25 -7 -53 -14
-62 -15 -10 -2 -45 -18 -79 -36 -128 -68 -150 -167 -56 -242 38 -30 220 -140
352 -212 28 -15 55 -31 60 -35 19 -15 388 -200 479 -241 50 -23 120 -55 156
-71 131 -61 501 -202 725 -275 127 -42 235 -80 241 -85 6 -4 14 -34 17 -66 4
-32 23 -127 43 -212 40 -171 43 -218 30 -534 -6 -139 -11 -179 -37 -267 -69
-237 -24 -417 124 -503 73 -42 228 -75 487 -102 36 -3 66 -7 67 -8 1 0 -37
-41 -84 -89 -99 -105 -207 -239 -438 -547 -160 -213 -211 -271 -366 -416 -36
-34 -99 -109 -140 -168 -167 -241 -288 -403 -349 -470 -88 -96 -122 -140 -225
-286 l-87 -125 5 50 c6 46 9 87 22 300 3 44 7 100 10 125 2 25 6 88 10 140 3
52 8 120 10 150 2 30 9 127 15 215 6 88 13 176 15 197 2 20 7 99 11 176 7 140
7 140 -17 155 -33 22 -273 70 -459 91 -45 6 -274 26 -319 29 l-44 2 -45 104
c-30 69 -52 106 -67 113 -17 8 -43 4 -111 -17 -361 -108 -777 -278 -981 -401
-54 -32 -63 -42 -63 -66 0 -25 45 -137 120 -303 10 -22 42 -94 70 -160 29 -66
61 -140 73 -165 21 -48 59 -134 176 -401 l73 -167 -80 -153 c-117 -225 -179
-420 -170 -533 4 -50 35 -114 135 -286 44 -77 114 -219 138 -285 57 -151 128
-458 150 -645 3 -30 9 -68 11 -85 3 -16 7 -378 8 -803 l3 -772 -37 -33 -37
-32 -7 -145 c-4 -80 -9 -163 -11 -185 -2 -22 -7 -78 -10 -125 -9 -138 -30
-354 -41 -417 l-5 -32 -83 92 c-665 739 -1205 1786 -1470 2852 -77 310 -154
728 -181 990 -4 33 -8 71 -10 85 -2 14 -7 57 -10 95 -3 39 -8 86 -10 105 -3
19 -7 76 -10 125 -4 50 -8 110 -10 135 -21 222 -28 1057 -12 1340 4 74 10 173
13 220 2 47 6 110 9 140 3 30 7 96 11 145 3 50 7 97 9 105 2 9 6 60 10 115 4
55 9 102 10 105 2 3 6 43 10 90 3 47 8 92 10 100 2 8 6 44 10 80 3 36 8 76 10
90 2 14 7 43 9 65 13 104 69 483 87 590 11 66 22 134 25 150 11 68 47 267 65
360 11 55 22 111 24 125 5 39 100 468 139 635 69 288 142 560 235 880 12 38
23 103 27 145 3 41 7 80 9 87 12 38 22 645 15 868 -9 264 -119 438 -320 510
-103 37 -186 43 -605 45 -656 3 -1747 5 -1748 4z m5081 -7269 c2 -2 -8 -25
-21 -52 -31 -60 -107 -246 -137 -333 -30 -86 -36 -91 -38 -28 -1 29 -5 65 -8
79 -6 31 12 87 78 240 l50 117 37 -10 c20 -6 37 -11 39 -13z m5992 -3982 c157
-77 315 -153 352 -169 37 -16 68 -32 68 -35 0 -9 -205 -204 -327 -311 -86 -74
-252 -205 -366 -287 -122 -89 -372 -251 -387 -251 -4 0 -14 42 -24 94 l-16 94
34 80 c128 298 213 564 251 782 15 85 29 161 31 167 5 18 52 -2 384 -164z"/>
<path d="M1732 11251 c-271 -109 -495 -200 -496 -202 -4 -4 74 -206 87 -226 5
-8 65 12 205 69 108 44 226 92 262 105 l65 24 -35 -38 c-19 -20 -37 -40 -40
-43 -7 -7 -141 -162 -158 -182 -9 -11 -11 -21 -3 -35 5 -10 22 -49 37 -88 15
-38 30 -73 33 -77 7 -7 60 -14 181 -24 47 -4 107 -10 134 -13 l49 -6 -259
-104 c-143 -57 -260 -105 -261 -106 -3 -2 86 -227 92 -233 2 -3 454 177 991
395 8 3 -4 44 -34 119 l-46 114 -40 0 c-23 1 -57 3 -76 5 -31 4 -136 11 -430
31 -52 4 -96 7 -97 9 -2 1 9 15 25 32 15 17 46 52 70 78 24 27 80 88 125 138
111 121 126 138 170 185 39 44 42 52 28 80 -6 9 -25 56 -43 104 -18 49 -35 88
-38 88 -3 -1 -227 -90 -498 -199z"/>
<path d="M19999 11317 l-55 -132 31 -31 c16 -17 82 -86 145 -154 63 -68 123
-131 133 -139 35 -31 20 -38 -80 -41 -54 -1 -118 -3 -143 -5 -25 -2 -84 -5
-132 -6 -48 -1 -94 -7 -102 -13 -12 -10 -37 -65 -94 -211 l-20 -51 66 7 c37 4
103 10 147 13 44 4 100 9 125 11 76 8 132 13 215 21 44 3 114 10 155 14 l75 7
173 -69 c97 -39 177 -67 182 -62 16 17 99 229 92 235 -4 4 -81 37 -172 74
-190 76 -137 29 -470 418 -116 136 -213 247 -214 247 -1 0 -27 -60 -57 -133z"/>
<path d="M19417 10012 c-10 -15 -39 -63 -66 -107 l-47 -80 270 -162 271 -163
-95 -1 c-52 -1 -111 -2 -130 -4 -19 -1 -143 -6 -275 -10 -132 -4 -243 -9 -246
-11 -10 -6 -132 -214 -128 -217 65 -47 923 -546 929 -540 4 4 34 54 68 110
l61 103 -263 157 c-146 87 -263 159 -262 160 5 6 150 13 386 19 244 7 311 9
337 13 10 1 113 164 128 203 5 11 -103 80 -449 286 -250 150 -459 272 -463
272 -4 0 -16 -12 -26 -28z"/>
<path d="M2734 9813 c-76 -87 -141 -160 -144 -163 -3 -3 -32 -36 -65 -75 -33
-38 -72 -83 -86 -100 -50 -57 -192 -220 -243 -279 -28 -32 -56 -63 -62 -69 -7
-8 8 -43 54 -121 36 -61 70 -117 76 -123 9 -10 128 13 560 107 302 66 550 121
552 123 2 1 -26 52 -61 112 -36 61 -66 113 -67 118 -3 6 -369 -86 -701 -177
-48 -13 -87 -20 -85 -16 2 4 71 79 153 166 83 86 167 176 189 198 21 23 70 75
110 116 39 41 77 83 84 92 12 15 5 32 -53 130 -37 62 -69 114 -70 116 -1 2
-65 -68 -141 -155z"/>
<path d="M18345 8437 c-27 -34 -64 -78 -82 -97 -18 -19 -33 -41 -33 -48 0 -13
44 -91 170 -302 31 -52 134 -227 229 -387 95 -161 176 -293 179 -293 4 0 28
26 54 58 25 31 54 67 65 79 56 66 57 52 -8 149 l-59 88 24 26 c13 14 32 36 44
50 11 14 57 69 101 122 l81 98 53 -21 c28 -11 72 -29 97 -40 42 -19 45 -19 57
-3 7 10 23 29 35 43 79 92 120 143 116 146 -3 3 -157 61 -344 129 -186 68
-384 140 -439 161 -232 85 -286 105 -288 105 -1 0 -24 -28 -52 -63z m425 -312
c63 -26 119 -51 123 -55 4 -4 -29 -51 -74 -104 l-82 -98 -27 44 c-15 24 -65
102 -112 173 -46 72 -87 136 -92 142 -4 7 28 -2 71 -21 43 -18 130 -55 193
-81z"/>
<path d="M4095 7862 c-28 -10 -73 -30 -100 -46 -52 -30 -244 -215 -286 -276
-140 -201 -119 -414 59 -602 176 -186 429 -212 607 -63 l30 25 -87 86 -86 86
-44 -25 c-65 -39 -114 -43 -177 -17 -104 45 -165 152 -142 246 16 64 52 113
168 226 137 134 206 161 300 119 84 -39 161 -152 148 -220 -9 -46 -26 -90 -41
-101 -7 -7 -14 -16 -14 -21 0 -5 39 -47 87 -94 l87 -85 23 27 c45 55 84 148
92 219 14 135 -37 261 -150 375 -111 112 -215 159 -348 159 -45 -1 -96 -8
-126 -18z"/>
<path d="M17622 7550 c-61 -13 -148 -54 -191 -91 -47 -41 -97 -87 -253 -232
-101 -94 -125 -122 -115 -131 6 -7 62 -66 122 -132 61 -65 138 -148 172 -184
34 -36 70 -74 80 -86 46 -53 347 -374 350 -374 4 0 56 48 155 144 l40 38 -54
57 c-30 31 -79 83 -110 116 l-56 59 112 111 c117 115 149 165 172 260 18 79 9
155 -27 228 -77 158 -244 249 -397 217z m71 -254 c46 -20 74 -47 96 -96 34
-77 9 -130 -116 -242 l-64 -57 -63 67 c-34 37 -81 88 -104 113 l-43 47 63 60
c80 77 106 96 143 110 41 14 51 14 88 -2z"/>
<path d="M5320 6689 c-129 -93 -338 -242 -463 -331 -125 -89 -224 -165 -219
-170 33 -33 208 -146 217 -139 5 4 42 33 82 65 l72 57 159 -111 c154 -107 160
-113 152 -138 -5 -15 -19 -60 -31 -101 -23 -72 -23 -74 -3 -87 10 -7 24 -17
29 -21 36 -28 167 -114 169 -112 2 2 43 150 91 329 49 179 103 381 122 450 70
258 83 305 83 315 0 10 -212 166 -222 164 -1 0 -109 -77 -238 -170z m144 -322
l-67 -205 -71 50 c-39 28 -86 60 -103 72 -18 11 -33 23 -32 26 0 7 333 268
337 264 2 -1 -27 -95 -64 -207z"/>
<path d="M16451 6668 l-103 -62 7 -85 c4 -47 8 -99 10 -116 2 -16 7 -66 10
-110 4 -44 8 -96 10 -115 16 -171 17 -224 4 -214 -35 28 -521 344 -529 344 -5
0 -55 -27 -110 -61 -97 -58 -100 -62 -87 -82 7 -12 37 -62 67 -112 29 -49 63
-106 75 -125 13 -19 103 -170 200 -335 98 -165 183 -307 189 -317 10 -14 24
-9 119 49 60 36 106 70 104 77 -3 6 -66 112 -140 236 -74 124 -134 226 -132
228 2 2 64 -35 139 -83 75 -47 143 -88 151 -91 7 -3 47 14 87 37 88 51 108 67
103 82 -2 7 -6 59 -10 117 -3 58 -8 132 -10 165 l-5 60 20 -30 c11 -16 77
-125 146 -241 l127 -212 101 61 c55 33 105 63 109 67 6 5 -537 930 -546 930
-1 0 -49 -28 -106 -62z"/>
<path d="M6611 6119 c-140 -43 -233 -196 -222 -365 3 -51 80 -139 224 -258 80
-65 150 -129 156 -142 22 -50 -19 -126 -76 -140 -61 -16 -167 22 -222 78 -38
39 -48 87 -29 136 l15 37 -116 56 -116 56 -19 -46 c-14 -32 -20 -70 -20 -126
-1 -69 3 -88 28 -134 42 -81 125 -155 231 -206 107 -51 161 -65 253 -65 124 0
228 52 286 144 74 116 77 224 9 324 -27 41 -43 56 -206 195 -66 55 -123 111
-128 124 -10 27 3 68 33 101 29 30 88 29 153 -2 70 -33 90 -58 90 -114 0 -26
-3 -56 -7 -67 -7 -18 5 -26 102 -72 125 -58 119 -60 145 37 57 215 -165 442
-445 455 -47 3 -100 0 -119 -6z"/>
<path d="M14770 5818 c-271 -35 -475 -242 -465 -470 5 -110 50 -258 122 -406
53 -108 162 -202 275 -236 169 -50 420 29 550 173 139 154 139 359 0 662 -92
203 -270 305 -482 277z m144 -259 c49 -33 87 -98 136 -229 52 -139 59 -231 25
-290 -50 -84 -171 -136 -262 -111 -100 26 -136 78 -219 313 -55 155 -25 261
90 320 80 41 168 40 230 -3z"/>
<path d="M7905 5638 c-6 -16 -172 -527 -262 -807 -37 -113 -62 -206 -57 -208
158 -56 236 -78 243 -69 4 6 24 61 44 121 19 61 90 277 156 480 66 204 122
381 123 394 3 22 -5 27 -97 56 -55 18 -110 35 -123 39 -15 5 -24 3 -27 -6z"/>
<path d="M8795 5376 c-3 -6 -13 -63 -24 -126 -18 -105 -86 -471 -146 -790 -13
-69 -20 -128 -17 -131 6 -6 98 -25 213 -44 l35 -7 48 259 c26 142 52 280 58
307 l10 49 140 -345 140 -344 102 -18 c55 -10 111 -20 123 -23 15 -3 23 1 27
14 3 11 28 140 56 289 27 148 69 377 93 509 25 132 43 242 41 244 -3 4 -248
51 -250 48 -2 -3 -75 -394 -81 -432 -7 -44 -33 -168 -36 -172 -2 -1 -36 77
-76 175 -40 97 -102 250 -138 339 l-67 162 -45 10 c-125 28 -203 39 -206 27z"/>
<path d="M13143 5360 c-236 -62 -363 -217 -363 -441 0 -68 27 -229 56 -329 23
-80 60 -146 112 -202 108 -115 246 -154 436 -121 186 32 325 144 372 300 13
44 21 189 11 199 -2 3 -57 -6 -121 -18 l-116 -23 -1 -40 c-1 -76 -35 -133
-104 -175 -34 -21 -52 -25 -121 -25 -69 0 -86 3 -118 25 -53 36 -91 120 -120
265 -44 221 -20 311 99 360 124 53 244 12 290 -97 8 -21 19 -38 23 -37 4 0 57
10 117 23 105 22 110 24 107 47 -8 73 -95 195 -174 245 -99 63 -250 80 -385
44z"/>
<path d="M10633 5145 c-82 -22 -153 -63 -208 -119 -103 -105 -140 -239 -133
-486 4 -114 9 -157 25 -202 71 -193 238 -297 478 -298 140 0 249 38 337 119
77 71 124 167 142 294 13 85 7 312 -9 371 -58 217 -232 337 -485 335 -52 0
-119 -7 -147 -14z m232 -216 c56 -16 100 -53 126 -107 18 -38 23 -66 24 -147
4 -260 -25 -348 -134 -396 -24 -10 -64 -19 -90 -19 -101 0 -169 39 -208 119
-26 52 -27 60 -25 205 2 182 16 240 70 294 57 57 145 76 237 51z"/>
<path d="M2101 3248 c-44 -16 -51 -121 -12 -155 17 -14 856 -16 8970 -15 8404
0 8953 1 8970 17 11 9 22 28 25 41 9 34 -10 100 -32 110 -21 9 -17896 12
-17921 2z"/>
<path d="M7668 2483 c-49 -13 -66 -108 -27 -149 63 -67 176 -15 162 74 -10 66
-61 95 -135 75z"/>
<path d="M15004 2476 c-49 -35 -50 -106 -3 -149 25 -23 37 -28 67 -23 71 9
107 97 63 155 -23 30 -96 40 -127 17z"/>
<path d="M15379 2460 c-3 -110 0 -831 4 -837 4 -6 73 -8 145 -4 10 1 12 91 10
434 l-3 432 -77 0 c-77 1 -78 1 -79 -25z"/>
<path d="M11480 2458 c-158 -24 -287 -113 -359 -248 -81 -152 -89 -341 -21
-485 74 -155 212 -240 402 -248 69 -3 223 13 232 25 2 2 6 22 10 45 l6 43 -36
-6 c-20 -3 -46 -8 -58 -10 -30 -6 -165 -5 -201 1 -162 30 -259 130 -287 294
-24 138 24 299 116 392 74 74 162 109 279 111 240 5 381 -127 371 -347 -5
-127 -54 -205 -129 -205 -25 0 -64 34 -66 57 -1 7 -2 19 -3 26 -1 6 8 71 21
142 12 72 23 137 23 145 0 12 -12 15 -52 14 -70 -2 -68 -1 -68 -23 0 -11 -4
-23 -10 -26 -5 -3 -10 -2 -10 4 0 6 -18 20 -40 31 -111 56 -238 -6 -276 -135
-38 -133 -12 -236 74 -283 71 -40 185 -24 231 32 11 14 17 11 45 -18 64 -68
178 -72 263 -9 109 80 140 310 63 463 -50 99 -162 185 -273 210 -67 14 -182
19 -247 8z m94 -358 c51 -19 63 -103 27 -186 -33 -73 -108 -91 -152 -35 -18
22 -20 36 -16 86 9 116 61 166 141 135z"/>
<path d="M3835 2241 c-37 -9 -82 -38 -95 -60 -7 -12 -9 -8 -10 19 l0 36 -77
-1 -78 0 0 -307 0 -308 25 -1 c39 -1 93 -1 116 0 22 1 22 4 22 174 0 258 -1
243 31 279 22 25 37 32 72 34 54 2 81 -10 103 -47 14 -24 17 -58 17 -234 l0
-205 37 -1 c20 -1 56 -2 79 -3 24 0 44 1 44 4 1 3 2 95 3 205 2 165 5 206 19
232 31 59 129 69 178 17 24 -25 24 -29 27 -232 1 -114 4 -211 6 -217 3 -10
143 -11 153 -2 2 3 4 107 3 231 -1 255 -7 285 -73 343 -79 69 -224 70 -309 2
l-38 -30 -37 29 c-62 49 -135 63 -218 43z"/>
<path d="M5585 2241 c-94 -25 -165 -90 -190 -175 -19 -63 -19 -218 -1 -279 29
-98 101 -157 216 -178 133 -23 258 27 312 126 15 28 28 64 28 82 l0 32 -70 0
-71 0 -16 -41 c-19 -48 -72 -77 -133 -72 -90 7 -125 70 -118 211 5 102 21 136
77 159 37 15 95 13 130 -5 22 -12 47 -49 53 -76 3 -18 12 -20 76 -20 71 -1 72
-1 72 26 0 68 -57 147 -133 186 -54 27 -174 40 -232 24z"/>
<path d="M6342 2236 c-78 -26 -134 -77 -161 -147 l-9 -26 75 1 c69 1 79 3 104
28 22 23 37 28 74 28 79 0 114 -42 113 -135 l-1 -41 -50 24 c-44 21 -61 24
-132 20 -96 -5 -144 -26 -189 -82 -28 -34 -31 -45 -31 -105 0 -56 4 -74 27
-108 64 -97 250 -120 356 -45 l29 21 -5 -24 c-3 -17 0 -25 9 -26 21 -1 101 -1
127 0 l22 1 0 218 c-1 233 -6 264 -53 326 -54 70 -203 105 -305 72z m146 -365
c88 -47 48 -145 -65 -157 -120 -13 -185 107 -84 158 37 18 114 18 149 -1z"/>
<path d="M7042 2231 c-91 -31 -132 -88 -132 -183 0 -63 24 -109 69 -133 17 -8
86 -29 153 -45 76 -19 128 -36 136 -47 37 -51 -14 -103 -103 -103 -63 0 -96
17 -115 57 -15 32 -16 33 -81 33 -81 0 -89 -13 -54 -88 17 -37 35 -57 67 -75
131 -76 329 -49 413 56 27 35 30 46 30 105 0 111 -26 133 -221 182 -64 17
-123 35 -130 41 -8 6 -14 24 -14 40 0 39 37 62 96 61 57 -2 93 -24 101 -62 5
-30 6 -30 74 -30 69 0 69 0 69 28 -1 42 -34 107 -70 132 -71 51 -193 64 -288
31z"/>
<path d="M8272 2236 c-19 -5 -47 -23 -63 -38 l-29 -30 0 35 0 35 -75 -1 c-43
-1 -76 -6 -76 -12 -1 -5 -2 -144 -3 -307 -1 -259 1 -298 14 -299 25 -1 93 -1
122 0 l27 1 3 215 3 215 26 25 c30 31 101 42 139 23 52 -27 60 -65 59 -276 0
-105 2 -195 4 -200 4 -6 73 -7 145 -3 11 1 13 49 10 244 -3 208 -5 246 -21
274 -52 96 -165 135 -285 99z"/>
<path d="M8958 2233 c-26 -9 -66 -31 -88 -50 -76 -65 -99 -144 -89 -304 4 -80
10 -104 32 -142 54 -92 145 -136 269 -132 104 4 179 40 225 109 43 63 53 103
53 212 0 154 -38 233 -141 289 -44 24 -67 29 -134 31 -52 2 -97 -3 -127 -13z
m189 -135 c18 -13 37 -36 43 -52 13 -38 13 -205 0 -242 -33 -91 -192 -97 -237
-10 -23 44 -22 219 1 264 32 63 129 83 193 40z"/>
<path d="M9737 2240 c-147 -37 -210 -149 -201 -358 6 -125 58 -209 158 -254
64 -28 199 -30 259 -4 60 26 123 91 141 143 28 81 26 82 -59 81 -72 -1 -74 -2
-80 -28 -12 -55 -81 -94 -147 -83 -85 13 -108 54 -108 188 0 83 4 106 20 133
21 35 72 62 114 62 56 0 126 -56 126 -102 0 -10 19 -13 76 -13 l76 -1 -6 39
c-13 78 -67 145 -146 180 -51 23 -164 31 -223 17z"/>
<path d="M10466 2234 c-34 -11 -66 -32 -101 -68 -64 -64 -79 -113 -79 -251 1
-81 5 -110 23 -151 53 -122 185 -182 336 -154 159 30 231 139 223 339 -6 146
-47 219 -156 275 -47 24 -183 30 -246 10z m178 -129 c50 -24 66 -69 66 -181 0
-133 -27 -178 -111 -190 -60 -8 -112 14 -135 57 -22 43 -28 194 -10 247 25 72
114 103 190 67z"/>
<path d="M12388 2236 c-122 -45 -169 -131 -165 -304 3 -109 23 -168 73 -216
87 -84 251 -92 331 -17 26 24 30 20 27 -34 -1 -22 -3 -48 -3 -57 -1 -10 -14
-32 -30 -50 -28 -32 -32 -33 -104 -33 -69 0 -78 2 -104 28 -27 25 -36 27 -107
27 -76 0 -77 -1 -71 -22 11 -37 54 -87 94 -113 53 -33 114 -47 196 -47 119 1
214 48 262 129 l28 48 0 330 0 330 -77 0 -78 1 0 -33 c0 -33 0 -33 -19 -14
-53 53 -177 76 -253 47z m211 -143 c40 -30 55 -70 54 -146 -1 -85 -16 -121
-60 -148 -65 -40 -149 -24 -188 35 -33 50 -24 207 13 249 35 39 133 45 181 10z"/>
<path d="M13292 2237 c-19 -6 -47 -24 -63 -39 l-29 -30 0 35 0 34 -69 -1 c-38
-1 -72 -4 -76 -8 -5 -4 -9 -500 -5 -603 0 -8 59 -11 142 -6 15 1 17 22 20 215
3 209 4 215 26 239 49 52 148 42 179 -16 13 -26 16 -67 17 -234 0 -133 4 -203
11 -204 14 -1 105 -1 131 0 21 1 21 5 21 201 0 135 4 209 13 229 32 78 172 76
200 -3 5 -16 10 -118 10 -227 0 -152 3 -199 13 -200 15 -1 128 -1 142 0 7 1
10 82 9 231 -2 226 -2 231 -28 283 -42 85 -120 124 -228 113 -60 -5 -108 -25
-145 -59 l-22 -20 -35 31 c-56 49 -153 65 -234 39z"/>
<path d="M14405 2241 c-63 -16 -133 -69 -161 -123 -25 -49 -20 -54 54 -53 59
0 72 4 101 28 25 21 43 27 77 27 25 0 54 -5 66 -11 27 -14 48 -69 48 -124 l0
-45 -24 15 c-60 40 -166 47 -259 19 -77 -23 -133 -113 -124 -196 11 -93 69
-150 170 -168 71 -14 129 -6 190 25 45 23 47 23 47 5 0 -11 3 -20 8 -21 4 0
39 -1 77 -2 l70 -1 3 214 c2 139 -1 230 -9 256 -26 95 -114 155 -233 160 -39
2 -84 0 -101 -5z m133 -370 c27 -14 52 -50 52 -74 0 -10 -13 -31 -28 -47 -72
-72 -222 -38 -222 50 0 35 37 76 73 83 38 6 103 0 125 -12z"/>
<path d="M16295 2236 c-86 -27 -133 -68 -168 -144 -18 -39 -21 -66 -22 -167 0
-102 3 -127 21 -166 50 -108 154 -162 295 -154 119 6 213 75 244 179 8 27 12
52 9 57 -3 5 -36 8 -74 7 l-68 -2 -15 -37 c-19 -48 -54 -70 -114 -72 -54 -2
-92 17 -119 58 -19 28 -26 180 -12 233 30 110 191 121 243 17 l20 -41 70 1 70
0 -3 33 c-6 80 -82 166 -173 195 -60 20 -147 21 -204 3z"/>
<path d="M17023 2229 c-64 -25 -117 -75 -146 -137 -19 -40 -22 -65 -22 -167 0
-111 2 -124 28 -175 48 -97 147 -149 277 -146 117 4 208 62 251 160 19 43 22
69 22 166 0 98 -3 122 -22 161 -49 103 -128 151 -256 155 -60 2 -93 -2 -132
-17z m195 -129 c49 -30 61 -68 58 -185 -1 -78 -6 -106 -20 -128 -37 -56 -110
-72 -176 -39 -54 26 -70 69 -70 183 0 83 3 100 23 130 12 18 34 39 47 46 37
19 101 16 138 -7z"/>
<path d="M17872 2230 c-24 -11 -52 -30 -62 -42 l-19 -23 -1 37 0 37 -75 -2
-75 -2 -1 -50 c-3 -170 1 -558 5 -563 3 -3 39 -5 81 -6 l75 -1 0 198 c0 220 7
255 58 281 52 27 119 12 149 -33 14 -22 17 -54 19 -221 1 -107 2 -202 3 -210
1 -15 3 -15 144 -11 16 1 17 18 17 211 l0 210 28 31 c31 35 82 45 134 27 53
-19 60 -49 60 -274 0 -193 1 -204 19 -205 11 0 44 -1 74 -1 30 0 59 1 63 1 4
1 8 104 7 230 l-1 229 -29 58 c-25 49 -39 63 -85 87 -50 26 -62 29 -126 24
-73 -5 -121 -23 -161 -60 l-22 -20 -35 31 c-62 54 -166 68 -244 32z"/>
<path d="M4670 2223 c0 -6 4 -22 10 -35 5 -13 51 -144 101 -293 50 -148 93
-272 95 -274 3 -3 114 -5 156 -2 12 1 23 20 37 64 10 34 55 169 100 299 45
131 81 241 81 246 0 4 -35 8 -79 8 l-78 0 -64 -218 c-35 -120 -67 -218 -71
-218 -3 0 -11 19 -16 43 -6 23 -33 121 -62 218 l-52 175 -79 0 c-56 0 -79 -4
-79 -13z"/>
<path d="M7630 1928 c0 -169 3 -308 8 -309 10 -1 114 -1 135 0 16 1 17 23 17
309 l0 308 -80 0 -80 0 0 -308z"/>
<path d="M14979 2206 c-2 -158 0 -578 4 -582 4 -5 87 -8 135 -5 l22 1 0 308 0
307 -80 1 -80 1 -1 -31z"/>
<path d="M15830 1793 c-67 -19 -94 -75 -65 -136 17 -36 37 -47 91 -47 71 0
108 90 62 153 -14 19 -65 36 -88 30z"/>
<path d="M6975 861 c-114 -31 -188 -97 -216 -195 -5 -17 -9 -121 -9 -232 0
-225 6 -258 64 -328 48 -59 128 -96 218 -100 159 -8 266 49 319 169 21 46 23
67 24 245 2 214 -7 268 -53 330 -35 47 -48 57 -109 86 -56 27 -182 40 -238 25z
m164 -145 c13 -6 34 -24 45 -39 19 -26 21 -44 24 -227 3 -174 1 -203 -15 -236
-44 -94 -204 -101 -258 -11 -18 29 -20 51 -20 232 0 172 2 204 18 232 35 64
127 86 206 49z"/>
<path d="M7917 849 c-101 -34 -157 -105 -157 -197 0 -81 11 -112 55 -158 32
-34 38 -45 26 -49 -24 -7 -79 -62 -96 -94 -32 -62 -23 -170 20 -231 54 -77
156 -119 278 -115 104 4 171 29 227 85 107 106 89 283 -34 347 l-28 15 30 27
c48 45 66 88 66 161 0 71 -14 107 -61 154 -67 68 -213 93 -326 55z m189 -126
c51 -33 57 -134 11 -180 -14 -15 -40 -27 -65 -30 -75 -10 -128 29 -136 99 -7
68 28 117 92 128 42 7 68 3 98 -17z m15 -366 c58 -39 76 -110 43 -167 -46 -77
-210 -81 -260 -5 -21 32 -22 106 -1 138 38 58 155 76 218 34z"/>
<path d="M11493 856 c-111 -27 -189 -106 -209 -211 -11 -62 -8 -395 5 -441 22
-83 94 -153 186 -184 57 -19 180 -17 242 4 69 23 135 83 163 148 22 50 24 65
24 263 0 196 -2 213 -23 261 -45 104 -140 164 -265 169 -39 2 -94 -2 -123 -9z
m193 -151 c46 -30 54 -68 54 -269 0 -186 -5 -221 -37 -256 -39 -41 -128 -53
-189 -24 -61 29 -69 56 -72 264 -3 204 7 256 55 287 52 34 136 33 189 -2z"/>
<path d="M15957 858 c-81 -17 -159 -76 -191 -142 -75 -159 -15 -337 136 -399
46 -19 159 -17 184 3 10 8 -30 -56 -89 -143 l-108 -157 90 0 91 0 122 183
c149 223 162 252 162 372 0 73 -4 98 -22 132 -24 46 -64 91 -103 115 -64 40
-183 56 -272 36z m169 -142 c44 -26 66 -69 67 -130 2 -112 -85 -181 -193 -153
-65 17 -100 68 -102 146 -2 59 32 123 76 143 41 20 114 16 152 -6z"/>
<path d="M5909 852 c-25 -3 -27 -8 -39 -80 -6 -42 -15 -102 -20 -132 -29 -178
-40 -246 -40 -257 0 -9 21 -13 73 -13 63 0 77 3 93 21 26 29 75 49 121 49 121
-2 188 -130 123 -235 -27 -44 -71 -65 -136 -65 -56 0 -97 23 -121 67 l-18 33
-77 0 -78 0 6 -27 c16 -68 67 -134 134 -175 38 -22 142 -39 202 -33 108 12
210 82 249 171 41 92 32 210 -22 289 -32 46 -106 92 -167 103 -60 11 -143 0
-179 -23 -14 -9 -26 -15 -27 -13 -1 2 4 45 12 96 l14 92 159 0 159 0 0 65 c0
36 -4 65 -10 66 -33 2 -390 3 -411 1z"/>
<path d="M9500 852 c-25 -3 -26 -7 -59 -215 -18 -117 -36 -224 -38 -239 l-5
-28 71 0 c66 0 76 3 111 31 70 56 176 49 225 -15 54 -71 38 -175 -34 -223 -50
-34 -132 -32 -178 3 -19 14 -38 37 -43 50 -9 23 -14 24 -89 24 l-80 0 14 -45
c37 -125 162 -200 317 -190 65 5 145 37 193 78 17 14 44 49 60 79 26 47 30 63
30 138 0 70 -4 93 -23 129 -27 49 -69 94 -110 115 -68 34 -182 38 -243 8 l-39
-19 1 21 c0 11 6 53 12 91 l12 70 158 3 157 3 0 64 c0 64 0 65 -27 66 -109 3
-373 3 -393 1z"/>
<path d="M10638 850 c-13 -4 -43 -35 -73 -78 -192 -273 -214 -311 -230 -383
-28 -121 4 -246 80 -312 100 -87 289 -97 403 -20 78 53 132 150 132 238 0 56
-26 133 -61 179 -59 78 -196 120 -284 86 -32 -12 -37 -20 88 148 54 74 96 136
93 139 -8 8 -119 9 -148 3z m82 -426 c87 -52 87 -202 -1 -264 -39 -29 -124
-32 -163 -6 -66 42 -88 154 -46 224 39 64 141 86 210 46z"/>
<path d="M13053 849 c-13 -4 -24 -47 -48 -200 -18 -107 -35 -213 -39 -236 l-8
-43 81 0 c47 0 81 4 81 10 0 5 19 22 42 36 36 23 49 26 101 21 66 -6 100 -29
123 -84 45 -105 -27 -213 -140 -213 -61 0 -108 25 -131 70 -15 29 -17 30 -90
30 -69 0 -75 -2 -75 -20 0 -37 48 -117 90 -150 94 -75 267 -88 370 -27 71 41
115 95 140 172 26 80 3 203 -50 267 -37 44 -118 86 -180 91 -51 4 -142 -14
-165 -33 -19 -15 -19 -7 -5 76 20 116 -1 103 178 106 l157 3 1 63 c1 60 0 62
-25 63 -176 4 -395 3 -408 -2z"/>
<path d="M14203 852 c-23 -3 -46 -32 -196 -254 -93 -137 -119 -202 -120 -297
0 -112 46 -200 133 -253 136 -83 345 -44 437 80 107 145 44 370 -118 427 -49
18 -142 20 -171 4 -11 -6 -21 -9 -23 -7 -2 2 44 66 101 143 57 77 103 145 104
150 0 9 -97 14 -147 7z m76 -426 c43 -23 75 -95 67 -154 -11 -86 -66 -135
-150 -135 -98 -1 -154 67 -144 173 11 110 125 168 227 116z"/>
<path d="M15104 852 c-28 -3 -35 -10 -62 -70 -17 -37 -72 -155 -122 -262 -81
-173 -92 -202 -94 -258 -1 -38 2 -62 8 -63 6 0 92 -1 191 -2 l180 -2 0 -88 0
-87 78 0 77 0 0 89 0 89 46 0 c25 0 48 3 51 6 5 5 6 34 4 96 -1 24 -4 26 -51
25 l-50 -1 0 88 0 88 -75 -1 c-61 -1 -75 -4 -76 -18 -1 -9 -2 -47 -3 -86 l-1
-70 -98 0 c-54 0 -102 2 -107 5 -6 4 0 27 14 56 58 121 207 456 204 459 -5 6
-81 10 -114 7z"/>
<path d="M8694 471 c-2 -2 -4 -35 -4 -73 0 -58 3 -68 18 -69 19 -1 299 -1 322
0 12 1 15 16 15 71 0 39 -2 70 -5 71 -16 4 -342 3 -346 0z"/>
<path d="M12250 403 c0 -66 2 -73 20 -74 11 0 83 -1 160 -1 77 0 148 1 159 1
16 1 18 9 17 73 l-1 72 -178 1 -177 0 0 -72z"/>
</g>
</svg>
